<svg width="36" height="36" viewBox="0 0 36 36" fill="none" xmlns="http://www.w3.org/2000/svg">
<path d="M12.5182 1.12093C8.90758 2.37348 5.79381 4.75085 3.63423 7.90386C1.47464 11.0569 0.383076 14.8193 0.519861 18.6385C0.656645 22.4578 2.01457 26.1325 4.39418 29.1229C6.77379 32.1134 10.0497 34.2619 13.7406 35.253C16.7329 36.0251 19.868 36.059 22.8764 35.3518C25.6016 34.7396 28.1212 33.4302 30.1883 31.5518C32.3398 29.537 33.9015 26.974 34.7054 24.1382C35.5792 21.0543 35.7347 17.8113 35.1599 14.658H18.3565V21.6284H28.0879C27.8934 22.7401 27.4766 23.8012 26.8625 24.7481C26.2484 25.695 25.4495 26.5082 24.5138 27.1392C23.3255 27.9252 21.9859 28.4541 20.5811 28.6919C19.1722 28.9539 17.7271 28.9539 16.3182 28.6919C14.8902 28.3967 13.5393 27.8073 12.3516 26.9613C10.4436 25.6107 9.0109 23.6919 8.25803 21.4787C7.49243 19.2242 7.49243 16.7799 8.25803 14.5253C8.79394 12.9449 9.67986 11.506 10.8497 10.316C12.1884 8.92908 13.8833 7.93773 15.7483 7.45067C17.6134 6.96362 19.5765 6.99968 21.4224 7.55491C22.8644 7.99756 24.183 8.77095 25.2732 9.81344C26.3705 8.72182 27.4659 7.62737 28.5594 6.53011C29.124 5.94006 29.7395 5.37826 30.2956 4.7741C28.6315 3.22553 26.6783 2.02055 24.5477 1.22821C20.6678 -0.180578 16.4225 -0.218438 12.5182 1.12093Z" fill="white"/>
<path d="M12.5182 1.12093C16.4222 -0.219348 20.6674 -0.182767 24.5476 1.2251C26.6786 2.02283 28.631 3.23361 30.2927 4.78793C29.7281 5.39209 29.1324 5.95672 28.5565 6.54394C27.4611 7.63744 26.3667 8.72747 25.2732 9.81344C24.183 8.77095 22.8644 7.99756 21.4224 7.55491C19.5771 6.99774 17.614 6.9593 15.7484 7.44437C13.8829 7.92943 12.187 8.91896 10.8468 10.3044C9.67699 11.4945 8.79106 12.9334 8.25515 14.5137L2.40274 9.98255C4.49755 5.82844 8.12463 2.65115 12.5182 1.12093Z" fill="#E33629"/>
<path d="M0.850064 14.4713C1.16462 12.9123 1.6868 11.4027 2.40274 9.98255L8.25522 14.5249C7.48962 16.7795 7.48962 19.2238 8.25522 21.4784C6.30535 22.9841 4.35455 24.4973 2.4028 26.018C0.610521 22.4504 0.0639057 18.3856 0.850064 14.4713Z" fill="#F8BD00"/>
<path d="M18.3565 14.655H35.16C35.7348 17.8083 35.5793 21.0514 34.7054 24.1352C33.9015 26.971 32.3399 29.534 30.1884 31.5488C28.2997 30.0751 26.4025 28.6129 24.5138 27.1392C25.4502 26.5076 26.2494 25.6933 26.8636 24.7454C27.4777 23.7974 27.8942 22.7353 28.0879 21.6226H18.3565C18.3537 19.3019 18.3565 16.9785 18.3565 14.655Z" fill="#587DBD"/>
<path d="M2.39998 26.0182C4.35173 24.5125 6.30253 22.9993 8.2524 21.4786C9.00677 23.6925 10.4415 25.6116 12.3516 26.9613C13.543 27.8034 14.8968 28.3878 16.3266 28.6776C17.7356 28.9396 19.1807 28.9396 20.5896 28.6776C21.9944 28.4398 23.334 27.9109 24.5223 27.1249C26.411 28.5986 28.3081 30.061 30.1968 31.5347C28.13 33.4141 25.6104 34.7245 22.8848 35.3375C19.8765 36.0447 16.7414 36.0108 13.7491 35.2387C11.3824 34.6068 9.17183 33.4928 7.25582 31.9666C5.22783 30.3565 3.57147 28.3275 2.39998 26.0182Z" fill="#319F43"/>
</svg>
